<svg width="24" height="24" viewBox="0 0 24 24" fill="none" xmlns="http://www.w3.org/2000/svg">
<path fill-rule="evenodd" clip-rule="evenodd" d="M7.87701 2.06018C8.94358 2.01151 9.28416 2 12 2C14.7158 2 15.0564 2.01151 16.1229 2.06018C17.1874 2.10873 17.9143 2.27778 18.5504 2.52501C19.208 2.78053 19.7656 3.12245 20.3215 3.67839C20.8775 4.23435 21.2195 4.79203 21.475 5.44958C21.7222 6.08569 21.8913 6.81259 21.9398 7.87701C21.9885 8.94362 22 9.28416 22 12C22 14.7158 21.9885 15.0564 21.9398 16.123C21.8913 17.1874 21.7222 17.9143 21.475 18.5504C21.2195 19.208 20.8775 19.7656 20.3215 20.3215C19.7656 20.8775 19.208 21.2195 18.5504 21.475C17.9143 21.7222 17.1874 21.8913 16.1229 21.9398C15.0564 21.9885 14.7158 22 12 22C9.28416 22 8.94358 21.9885 7.87701 21.9398C6.81259 21.8913 6.08569 21.7222 5.44958 21.475C4.79203 21.2195 4.23432 20.8775 3.67839 20.3215C3.12242 19.7656 2.78053 19.2079 2.52496 18.5504C2.27775 17.9143 2.10873 17.1874 2.06014 16.123C2.01147 15.0564 2 14.7158 2 12C2 9.28413 2.01147 8.94362 2.06014 7.87701C2.10873 6.81259 2.27775 6.08569 2.52496 5.44958C2.78053 4.79203 3.12242 4.23435 3.67839 3.67839C4.23432 3.12245 4.79203 2.78053 5.44958 2.52501C6.08569 2.27778 6.81259 2.10873 7.87701 2.06018ZM16.0408 3.86007C14.9864 3.81196 14.6701 3.8018 12 3.8018C9.32985 3.8018 9.0136 3.81196 7.9591 3.86007C6.98415 3.90457 6.45462 4.06748 6.10225 4.20443C5.63551 4.38584 5.30235 4.60253 4.95244 4.95248C4.60253 5.30239 4.38579 5.63551 4.20438 6.10229C4.06748 6.45466 3.90457 6.98415 3.86007 7.95915C3.81196 9.0136 3.8018 9.32989 3.8018 12C3.8018 14.6701 3.81196 14.9864 3.86007 16.0408C3.90457 17.0158 4.06748 17.5454 4.20438 17.8977C4.38579 18.3645 4.60253 18.6976 4.95244 19.0475C5.30235 19.3975 5.63551 19.6142 6.10225 19.7955C6.45462 19.9325 6.98415 20.0955 7.95915 20.1399C9.01345 20.188 9.32965 20.1982 12 20.1982C14.6703 20.1982 14.9865 20.188 16.0408 20.1399C17.0158 20.0955 17.5453 19.9325 17.8976 19.7955C18.3645 19.6142 18.6976 19.3975 19.0475 19.0475C19.3975 18.6976 19.6141 18.3645 19.7955 17.8977C19.9325 17.5454 20.0954 17.0158 20.1399 16.0408C20.188 14.9864 20.1982 14.6701 20.1982 12C20.1982 9.32989 20.188 9.0136 20.1399 7.95915C20.0954 6.98415 19.9325 6.45466 19.7955 6.10229C19.6141 5.63551 19.3975 5.30239 19.0475 4.95244C18.6976 4.60253 18.3645 4.38584 17.8976 4.20443C17.5453 4.06748 17.0158 3.90457 16.0408 3.86007ZM8.66663 12C8.66663 13.8409 10.159 15.3334 12 15.3334C13.8409 15.3334 15.3334 13.8409 15.3334 12C15.3334 10.159 13.8409 8.66666 12 8.66666C10.159 8.66666 8.66663 10.159 8.66663 12ZM6.86483 12C6.86483 9.16393 9.16393 6.86487 12 6.86487C14.836 6.86487 17.1351 9.16393 17.1351 12C17.1351 14.8361 14.836 17.1351 12 17.1351C9.16393 17.1351 6.86483 14.8361 6.86483 12ZM17.338 7.86196C18.0007 7.86196 18.538 7.32473 18.538 6.66198C18.538 5.99923 18.0007 5.462 17.338 5.462C16.6753 5.462 16.138 5.99923 16.138 6.66198C16.138 7.32473 16.6753 7.86196 17.338 7.86196Z" fill="#0F1113"/>
</svg>
