<svg width="24" height="24" viewBox="0 0 24 24" fill="none" xmlns="http://www.w3.org/2000/svg">
<path d="M20.7215 3.14513L2.92984 10.4988C1.72917 10.9657 1.72917 11.7828 2.71153 12.0163L7.18673 13.5337L8.93315 19.1365C9.15146 19.7202 9.0423 19.9536 9.58806 19.9536C10.0247 19.9536 10.243 19.7202 10.4613 19.4867C10.5704 19.37 11.5528 18.3195 12.6443 17.1522L17.2286 20.7707C18.1019 21.2376 18.6476 21.0042 18.8659 19.9536L21.9221 4.66256C22.2496 3.37858 21.4855 2.67823 20.7215 3.14513ZM18.4293 6.6469L9.91551 14.9344L9.58806 18.7864L7.84164 13.1835L17.8836 6.41345C18.3202 6.06327 18.7568 6.29672 18.4293 6.6469Z" fill="#0F1113"/>
</svg>
