<svg width="24" height="24" viewBox="0 0 24 24" fill="none" xmlns="http://www.w3.org/2000/svg">
<path d="M18.7584 6.27729C18.6183 6.20752 18.4818 6.13104 18.3496 6.04813C17.9651 5.80333 17.6125 5.51489 17.2995 5.18901C16.5165 4.32613 16.224 3.45076 16.1163 2.83787H16.1206C16.0306 2.32915 16.0678 2 16.0734 2H12.5067V15.2818C12.5067 15.4602 12.5067 15.6364 12.4989 15.8106C12.4989 15.8322 12.4967 15.8522 12.4954 15.8756C12.4954 15.8851 12.4954 15.8951 12.4932 15.9051C12.4932 15.9076 12.4932 15.9101 12.4932 15.9126C12.4556 16.3892 12.297 16.8495 12.0313 17.2532C11.7656 17.6568 11.401 17.9914 10.9695 18.2275C10.5197 18.4739 10.0111 18.6032 9.49369 18.6025C7.83188 18.6025 6.48504 17.2976 6.48504 15.686C6.48504 14.0744 7.83188 12.7695 9.49369 12.7695C9.80826 12.7692 10.1209 12.8169 10.42 12.9107L10.4243 9.41338C9.51634 9.30043 8.59391 9.36992 7.71522 9.61747C6.83653 9.86502 6.02065 10.2852 5.31905 10.8516C4.70428 11.366 4.18745 11.9798 3.7918 12.6653C3.64124 12.9153 3.07317 13.9198 3.00437 15.5502C2.96111 16.4755 3.24969 17.4342 3.38727 17.8305V17.8388C3.4738 18.0721 3.8091 18.8683 4.35554 19.5395C4.79617 20.078 5.31675 20.5509 5.90053 20.9432V20.9349L5.90918 20.9432C7.63589 22.0732 9.55036 21.999 9.55036 21.999C9.88177 21.9861 10.992 21.999 12.2527 21.4236C13.651 20.7857 14.4471 19.8354 14.4471 19.8354C14.9557 19.2675 15.3601 18.6204 15.6429 17.9217C15.9657 17.1047 16.0734 16.1247 16.0734 15.7331V8.68675C16.1167 8.71175 16.693 9.07881 16.693 9.07881C16.693 9.07881 17.5232 9.59129 18.8186 9.92502C19.7479 10.1625 21 10.2125 21 10.2125V6.80268C20.5613 6.84851 19.6705 6.71518 18.7584 6.27729Z" fill="#0F1113"/>
</svg>
