<svg width="25" height="24" viewBox="0 0 25 24" fill="none" xmlns="http://www.w3.org/2000/svg">
<path d="M12.7199 10.5364L12.7686 10.5381L12.8056 10.5307C12.807 10.5306 12.8088 10.5305 12.8108 10.5304C12.8232 10.5297 12.8413 10.5292 12.8646 10.5292C12.9112 10.5292 12.968 10.5312 13.0226 10.5354L13.0481 10.5374L13.0737 10.5362C15.2575 10.436 16.9701 8.64183 16.9813 6.4421V6.44C16.9813 4.17988 15.1347 2.33333 12.8746 2.33333C10.6145 2.33333 8.76792 4.17988 8.76792 6.44C8.76792 8.66463 10.5059 10.4585 12.7199 10.5364ZM13.0346 11.2033H13.0344H13.0342H13.0341H13.0339H13.0337H13.0335H13.0334H13.0332H13.033H13.0328H13.0327H13.0325H13.0323H13.0321H13.032H13.0318H13.0316H13.0315H13.0313H13.0311H13.0309H13.0308H13.0306H13.0304H13.0303H13.0301H13.0299H13.0297H13.0296H13.0294H13.0292H13.0291H13.0289H13.0287H13.0286H13.0284H13.0282H13.0281H13.0279H13.0277H13.0276H13.0274H13.0272H13.0271H13.0269H13.0267H13.0266H13.0264H13.0262H13.0261H13.0259H13.0257H13.0256H13.0254H13.0252H13.0251H13.0249H13.0247H13.0246H13.0244H13.0243H13.0241H13.0239H13.0238H13.0236H13.0234H13.0233H13.0231H13.023H13.0228H13.0226H13.0225H13.0223H13.0221H13.022H13.0218H13.0217H13.0215H13.0213H13.0212H13.021H13.0209H13.0207H13.0205H13.0204H13.0202H13.0201H13.0199H13.0197H13.0196H13.0194H13.0193H13.0191H13.0189H13.0188H13.0186H13.0185H13.0183H13.0182H13.018H13.0178H13.0177H13.0175H13.0174H13.0172H13.0171H13.0169H13.0167H13.0166H13.0164H13.0163H13.0161H13.016H13.0158H13.0157H13.0155H13.0153H13.0152H13.015H13.0149H13.0147H13.0146H13.0144H13.0143H13.0141H13.014H13.0138H13.0136H13.0135H13.0133H13.0132H13.013H13.0129H13.0127H13.0126H13.0124H13.0123H13.0121H13.012H13.0118H13.0117H13.0115H13.0114H13.0112H13.011H13.0109H13.0107H13.0106H13.0104H13.0103H13.0101H13.01H13.0098H13.0097H13.0095H13.0094H13.0092H13.0091H13.0089H13.0088H13.0086H13.0085H13.0083H13.0082H13.008H13.0079H13.0077H13.0076H13.0074H13.0073H13.0071H13.007H13.0068H13.0067H13.0065H13.0064H13.0062H13.0061H13.0059H13.0058H13.0056H13.0055H13.0053H13.0052H13.005H13.0049H13.0047H13.0046H13.0044H13.0043H13.0041H13.004H13.0039H13.0037H13.0036H13.0034H13.0033H13.0031H13.003H13.0028H13.0027H13.0025H13.0024H13.0022H13.0021H13.0019H13.0018H13.0016H13.0015H13.0013H13.0012H13.001H13.0009H13.0007H13.0006H13.0005H13.0003H13.0002H13H12.9999H12.9997H12.9996H12.9994H12.9993H12.9991H12.999H12.9988H12.9987H12.9985H12.9984H12.9983H12.9981H12.998H12.9978H12.9977H12.9975H12.9974H12.9972H12.9971H12.9969H12.9968H12.9966H12.9965H12.9963H12.9962H12.9961H12.9959H12.9958H12.9956H12.9955H12.9953H12.9952H12.995H12.9949H12.9947H12.9946H12.9944H12.9943H12.9941H12.994H12.9939H12.9937H12.9936H12.9934H12.9933H12.9931H12.993H12.9928H12.9927H12.9925H12.9924H12.9922H12.9921H12.9919H12.9918H12.9917H12.9915H12.9914H12.9912H12.9911H12.9909H12.9908H12.9906H12.9905H12.9903H12.9902H12.99H12.9899H12.9897H12.9896H12.9895H12.9893H12.9892H12.989H12.9889H12.9887H12.9886H12.9884H12.9883H12.9881H12.988H12.9878H12.9877H12.9875H12.9874H12.9872H12.9872C12.9094 11.1931 12.8276 11.1939 12.7535 11.2024C10.0929 11.1026 8.10125 9.01141 8.10125 6.44C8.10125 3.81012 10.2447 1.66667 12.8746 1.66667C15.5042 1.66667 17.6475 3.80975 17.6479 6.43932C17.6383 9.02504 15.6175 11.1173 13.0577 11.2033H13.0577H13.0576H13.0576H13.0575H13.0574H13.0574H13.0573H13.0573H13.0572H13.0571H13.0571H13.057H13.057H13.0569H13.0569H13.0568H13.0567H13.0567H13.0566H13.0566H13.0565H13.0564H13.0564H13.0563H13.0563H13.0562H13.0561H13.0561H13.056H13.056H13.0559H13.0559H13.0558H13.0557H13.0557H13.0556H13.0556H13.0555H13.0554H13.0554H13.0553H13.0553H13.0552H13.0552H13.0551H13.055H13.055H13.0549H13.0549H13.0548H13.0547H13.0547H13.0546H13.0546H13.0545H13.0544H13.0544H13.0543H13.0543H13.0542H13.0542H13.0541H13.054H13.054H13.0539H13.0539H13.0538H13.0537H13.0537H13.0536H13.0536H13.0535H13.0535H13.0534H13.0533H13.0533H13.0532H13.0532H13.0531H13.053H13.053H13.0529H13.0529H13.0528H13.0527H13.0527H13.0526H13.0526H13.0525H13.0525H13.0524H13.0523H13.0523H13.0522H13.0522H13.0521H13.052H13.052H13.0519H13.0519H13.0518H13.0518H13.0517H13.0516H13.0516H13.0515H13.0515H13.0514H13.0513H13.0513H13.0512H13.0512H13.0511H13.0511H13.051H13.0509H13.0509H13.0508H13.0508H13.0507H13.0506H13.0506H13.0505H13.0505H13.0504H13.0503H13.0503H13.0502H13.0502H13.0501H13.0501H13.05H13.0499H13.0499H13.0498H13.0498H13.0497H13.0496H13.0496H13.0495H13.0495H13.0494H13.0494H13.0493H13.0492H13.0492H13.0491H13.0491H13.049H13.0489H13.0489H13.0488H13.0488H13.0487H13.0486H13.0486H13.0485H13.0485H13.0484H13.0484H13.0483H13.0482H13.0482H13.0481H13.0481H13.048H13.0479H13.0479H13.0478H13.0478H13.0477H13.0477H13.0476H13.0475H13.0475H13.0474H13.0474H13.0473H13.0472H13.0472H13.0471H13.0471H13.047H13.0469H13.0469H13.0468H13.0468H13.0467H13.0467H13.0466H13.0465H13.0465H13.0464H13.0464H13.0463H13.0462H13.0462H13.0461H13.0461H13.046H13.046H13.0459H13.0458H13.0458H13.0457H13.0457H13.0456H13.0455H13.0455H13.0454H13.0454H13.0453H13.0452H13.0452H13.0451H13.0451H13.045H13.045H13.0449H13.0448H13.0448H13.0447H13.0447H13.0446H13.0445H13.0445H13.0444H13.0444H13.0443H13.0443H13.0442H13.0441H13.0441H13.044H13.044H13.0439H13.0438H13.0438H13.0437H13.0437H13.0436H13.0436H13.0435H13.0434H13.0434H13.0433H13.0433H13.0432H13.0431H13.0431H13.043H13.043H13.0429H13.0428H13.0428H13.0427H13.0427H13.0426H13.0426H13.0425H13.0424H13.0424H13.0423H13.0423H13.0422H13.0421H13.0421H13.042H13.042H13.0419H13.0419H13.0418H13.0417H13.0417H13.0416H13.0416H13.0415H13.0414H13.0414H13.0413H13.0413H13.0412H13.0411H13.0411H13.041H13.041H13.0409H13.0409H13.0408H13.0407H13.0407H13.0406H13.0406H13.0405H13.0404H13.0404H13.0403H13.0403H13.0402H13.0402H13.0401H13.04H13.04H13.0399H13.0399H13.0398H13.0397H13.0397H13.0396H13.0396H13.0395H13.0394H13.0394H13.0393H13.0393H13.0392H13.0392H13.0391H13.039H13.039H13.0389H13.0389H13.0388H13.0387H13.0387H13.0386H13.0386H13.0385H13.0385H13.0384H13.0383H13.0383H13.0382H13.0382H13.0381H13.038H13.038H13.0379H13.0379H13.0378H13.0377H13.0377H13.0376H13.0376H13.0375H13.0375H13.0374H13.0373H13.0373H13.0372H13.0372H13.0371H13.037H13.037H13.0369H13.0369H13.0368H13.0368H13.0367H13.0366H13.0366H13.0365H13.0365H13.0364H13.0363H13.0363H13.0362H13.0362H13.0361H13.0361H13.036H13.0359H13.0359H13.0358H13.0358H13.0357H13.0356H13.0356H13.0355H13.0355H13.0354H13.0353H13.0353H13.0352H13.0352H13.0351H13.0351H13.035H13.0349H13.0349H13.0348H13.0348H13.0347H13.0346H13.0346Z" fill="#7E8794" stroke="#7E8794" stroke-width="0.833333"/>
<path d="M13.0446 22.55C11.0846 22.55 9.11461 22.05 7.62461 21.05C6.23461 20.13 5.47461 18.87 5.47461 17.5C5.47461 16.13 6.23461 14.86 7.62461 13.93C10.6246 11.94 15.4846 11.94 18.4646 13.93C19.8446 14.85 20.6146 16.11 20.6146 17.48C20.6146 18.85 19.8546 20.12 18.4646 21.05C16.9646 22.05 15.0046 22.55 13.0446 22.55ZM8.45461 15.19C7.49461 15.83 6.97461 16.65 6.97461 17.51C6.97461 18.36 7.50461 19.18 8.45461 19.81C10.9446 21.48 15.1446 21.48 17.6346 19.81C18.5946 19.17 19.1146 18.35 19.1146 17.49C19.1146 16.64 18.5846 15.82 17.6346 15.19C15.1446 13.53 10.9446 13.53 8.45461 15.19Z" fill="#7E8794"/>
</svg>
