<svg width="24" height="24" viewBox="0 0 24 24" fill="none" xmlns="http://www.w3.org/2000/svg">
<path fill-rule="evenodd" clip-rule="evenodd" d="M15.0728 1.99951H8.93726C3.33299 1.99951 1.99963 3.33287 1.99963 8.92673V15.0623C1.99963 20.6665 3.32258 21.9999 8.92685 21.9999H15.0624C20.6667 21.9999 22 20.6769 22 15.0727V8.93714C22 3.33287 20.6771 1.99951 15.0728 1.99951ZM17.9375 8.35406C18.375 8.35406 18.4687 8.57282 18.375 8.88532C18.2185 9.6399 16.8102 11.6789 16.4839 12.1513C16.4408 12.2137 16.4166 12.2488 16.4166 12.25C16.2603 12.4896 16.1978 12.6146 16.4166 12.8958C16.4911 13.0076 16.6607 13.1737 16.8547 13.3636C17.0404 13.5455 17.2485 13.7492 17.4166 13.9479C18.0416 14.6563 18.5104 15.25 18.6458 15.6563C18.7708 16.0625 18.5625 16.2709 18.1458 16.2709H16.6874C16.3005 16.2709 16.1029 16.0509 15.6787 15.5786C15.4976 15.377 15.2751 15.1294 14.9791 14.8334C14.1145 14 13.7499 13.8958 13.5311 13.8958C13.229 13.8958 13.1457 13.9792 13.1457 14.3958V15.7084C13.1457 16.0625 13.0311 16.2709 12.104 16.2709C10.5623 16.2709 8.86436 15.3334 7.65601 13.6042C5.84347 11.0729 5.35388 9.15616 5.35388 8.77074C5.35388 8.55199 5.43722 8.35406 5.85389 8.35406H7.31225C7.68726 8.35406 7.82268 8.52074 7.96851 8.90616C8.67686 10.9895 9.88522 12.8021 10.3748 12.8021C10.5623 12.8021 10.6456 12.7187 10.6456 12.25V10.1041C10.6072 9.5022 10.3956 9.2388 10.2383 9.04291C10.1396 8.92013 10.0623 8.82387 10.0623 8.6874C10.0623 8.53115 10.2081 8.35406 10.4373 8.35406H12.729C13.0415 8.35406 13.1457 8.51032 13.1457 8.88532V11.7812C13.1457 12.0937 13.2811 12.1979 13.3749 12.1979C13.5624 12.1979 13.7082 12.0937 14.052 11.75C15.1041 10.5833 15.8437 8.77074 15.8437 8.77074C15.9374 8.55199 16.1041 8.35406 16.4791 8.35406H17.9375Z" fill="#0F1113"/>
</svg>
